# xmcd
#
# Track frame offsets:
#	182
#	14735
#	27060
#	38842
#	51455
#	62940
#	73520
#	87180
#	99987
#	112975
#	123610
#	134325
#	151120
#	163677
#
# Disc length: 2337 seconds
#
# Revision: 6
# Processed by: cddbd v1.5.2PL0 Copyright (c) Steve Scherf et al.
# Submitted via: EasyCDDAExtractor 16.0.6.1
#
DISCID=ba091f0e
DTITLE=Jerry Lee Lewis - R-014 Chantilly Lace
DYEAR=1994
DGENRE=Country
TTITLE0=Me And Bobby McGee
TTITLE1=There Must Be More To Love Than This
TTITLE2=What Made Milwuakee Famous
TTITLE3=I'm So Lonesome I Could Cry
TTITLE4=Heartaches By The Number
TTITLE5=I'm Left, You're Right. She 's Gone
TTITLE6=Cold Cold Heart
TTITLE7=Chantilly Lace
TTITLE8=Would You Take Another Chance On Me ?
TTITLE9=He'll Have To Go
TTITLE10=I Love You Because
TTITLE11=For The Good Times
TTITLE12=Oh Lonesome Me
TTITLE13=I Can't Stop Loving You
EXTD=Spectrum Music. CD 550 180-2. Made in France by PMDC.
EXTT0=
EXTT1=
EXTT2=
EXTT3=
EXTT4=
EXTT5=
EXTT6=
EXTT7=
EXTT8=
EXTT9=
EXTT10=
EXTT11=
EXTT12=
EXTT13=
PLAYORDER=
